<?xml version="1.0" encoding="UTF-8"?>
<svg id="Calque_1" data-name="Calque 1" xmlns="http://www.w3.org/2000/svg" viewBox="0 0 96 93.68">
  <defs>
    <style>
      .cls-1 {
        fill: #502c1e;
        stroke-width: 0px;
      }
    </style>
  </defs>
  <path class="cls-1" d="m69.33,0v8c4.4,0,8.66,1.55,12,4.36,4.24,3.55,6.66,8.8,6.66,14.39,0,4.4-1.54,8.66-4.35,12l-6.87,8.19-28.78,34.29-28.78-34.29-6.87-8.2c-2.8-3.34-4.35-7.61-4.35-12.01,0-5.59,2.42-10.83,6.65-14.37,3.35-2.81,7.62-4.36,12.02-4.36,5.59,0,10.83,2.43,14.4,6.68l.82.97,6.11,7.22,6.11-7.22.84-1c3.55-4.23,8.79-6.66,14.38-6.66V0m0,0c-7.64,0-15.24,3.24-20.51,9.52l-.82.97-.82-.97C41.91,3.24,34.31,0,26.66,0,20.59,0,14.49,2.04,9.5,6.23,3.23,11.5,0,19.09,0,26.73c0,6.07,2.03,12.17,6.22,17.16l6.87,8.2,34.91,41.59,34.91-41.59,6.87-8.2c4.18-4.98,6.22-11.07,6.22-17.14,0-7.65-3.25-15.25-9.52-20.52C81.49,2.04,75.4,0,69.33,0h0Z"/>
</svg>